<?xml version='1.0' encoding='UTF-8'?>
<svg x="0px" y="0px" viewBox="0 0 32 32" version="1.1" xmlns="http://www.w3.org/2000/svg" xmlns:xlink="http://www.w3.org/1999/xlink" xml:space="preserve" id="Layer_1" style="enable-background:new 0 0 32 32">
  <style type="text/css">
	.Yellow{fill:#FFB115;}
	.Red{fill:#D11C1C;}
	.Blue{fill:#1177D7;}
	.Green{fill:#039C23;}
	.Black{fill:#727272;}
	.White{fill:#FFFFFF;}
	.st0{opacity:0.5;}
	.st1{display:none;}
	.st2{display:inline;fill:#039C23;}
	.st3{display:inline;fill:#D11C1C;}
	.st4{display:inline;fill:#727272;}
</style>
  <g id="Save">
    <g>
      <path d="M27,4h-3v10H8V4H5C4.4,4,4,4.4,4,5v22c0,0.6,0.4,1,1,1h22c0.6,0,1-0.4,1-1V5C28,4.4,27.6,4,27,4z M24,24H8    v-6h16V24z M10,4v8h10V4H10z M14,10h-2V6h2V10z" class="Black" />
    </g>
    <g>
      <path d="M27,4h-3v10H8V4H5C4.4,4,4,4.4,4,5v22c0,0.6,0.4,1,1,1h22c0.6,0,1-0.4,1-1V5C28,4.4,27.6,4,27,4z M24,24H8    v-6h16V24z M10,4v8h10V4H10z M14,10h-2V6h2V10z" class="Black" />
    </g>
  </g>
</svg>